# xmcd
#
# Track frame offsets: 
#        150
#        20362
#        39103
#        65637
#        82420
#        103903
#        117860
#        148518
#        157752
#        180687
#        196414
#        220839
#        245664
#        260011
#        280945
#        303057
#
# Disc length: 4333 seconds
#
# Revision: 5
# Processed by: cddbd v1.5.2PL0 Copyright (c) Steve Scherf et al.
# Submitted via: ExactAudioCopy v0.99pb4
#
DISCID=e310eb10
DTITLE=Klazz Brothers and Cuba Percussion - Opera meets Cuba
DYEAR=2007
DGENRE=Salsa
TTITLE0=Macht des Schicksals /G. Verdi: Die Macht des Schicksals
TTITLE1=Cancan /J. Offenbach: Orpheus in der Unterwelt
TTITLE2=O mio babbino caro /G. Puccini: Gianni Schicci
TTITLE3=Va Pensiero /G. Verdi: Nabucco
TTITLE4=Marchin'5/ G. Verdi: Aida
TTITLE5=Lass mich mit Tranen /G. F. Handel: Rinaldo
TTITLE6=Tannhauser /R. Wagner: Tannhauser
TTITLE7=Farandole /G. Bizet: L' alesienne
TTITLE8=Musette /G. Puccini: La Boheme
TTITLE9=Mambo e mobile /G. Verdi: Rigoletto
TTITLE10=Porgy and Bess /G. Gershwin: Porgy and Bess
TTITLE11=Barcarole /J. Offenbach: Hoffmanns Erzahlungen
TTITLE12=Leise, Leise /C. M. Von Weber: Der Freischutz
TTITLE13=Cuban Rossini /G. Rossini: Ouverturen
TTITLE14=Sum Wem Be /G. Verdi: La Traviata
TTITLE15=Abends will ich schlafen gehen /E. Humperdinck: Hansel and Gret
TTITLE15=el
EXTD=YEAR: 2007
EXTT0=
EXTT1=
EXTT2=
EXTT3=
EXTT4=
EXTT5=
EXTT6=
EXTT7=
EXTT8=
EXTT9=
EXTT10=
EXTT11=
EXTT12=
EXTT13=
EXTT14=
EXTT15=
PLAYORDER=
